<svg width="13" height="13" viewBox="0 0 13 13" fill="none" xmlns="http://www.w3.org/2000/svg">
<path fill-rule="evenodd" clip-rule="evenodd" d="M11.8549 0.645917C11.9015 0.692363 11.9384 0.747538 11.9636 0.808284C11.9889 0.869029 12.0018 0.93415 12.0018 0.999917C12.0018 1.06568 11.9889 1.13081 11.9636 1.19155C11.9384 1.2523 11.9015 1.30747 11.8549 1.35392L0.854937 12.3539C0.76105 12.4478 0.633713 12.5005 0.500937 12.5005C0.368161 12.5005 0.240823 12.4478 0.146937 12.3539C0.05305 12.26 0.000305176 12.1327 0.000305176 11.9999C0.000305176 11.8671 0.05305 11.7398 0.146937 11.6459L11.1469 0.645917C11.1934 0.599354 11.2486 0.562411 11.3093 0.537205C11.37 0.511998 11.4352 0.499023 11.5009 0.499023C11.5667 0.499023 11.6318 0.511998 11.6926 0.537205C11.7533 0.562411 11.8085 0.599354 11.8549 0.645917Z" fill="white"/>
<path fill-rule="evenodd" clip-rule="evenodd" d="M0.146894 0.645917C0.100331 0.692363 0.0633878 0.747538 0.0381813 0.808284C0.0129749 0.869029 0 0.93415 0 0.999917C0 1.06568 0.0129749 1.13081 0.0381813 1.19155C0.0633878 1.2523 0.100331 1.30747 0.146894 1.35392L11.1469 12.3539C11.2408 12.4478 11.3681 12.5005 11.5009 12.5005C11.6337 12.5005 11.761 12.4478 11.8549 12.3539C11.9488 12.26 12.0015 12.1327 12.0015 11.9999C12.0015 11.8671 11.9488 11.7398 11.8549 11.6459L0.854894 0.645917C0.808448 0.599354 0.753273 0.562411 0.692528 0.537205C0.631782 0.511998 0.566661 0.499023 0.500894 0.499023C0.435127 0.499023 0.370005 0.511998 0.30926 0.537205C0.248515 0.562411 0.193339 0.599354 0.146894 0.645917Z" fill="white"/>
</svg>
