<?xml version="1.0" encoding="iso-8859-1"?>
<!-- Generator: Adobe Illustrator 19.0.0, SVG Export Plug-In . SVG Version: 6.00 Build 0)  -->
<svg version="1.1" id="Layer_1" xmlns="http://www.w3.org/2000/svg" xmlns:xlink="http://www.w3.org/1999/xlink" x="0px" y="0px"
	 viewBox="0 0 512 512" style="enable-background:new 0 0 512 512;" xml:space="preserve">
<g transform="translate(1 1)">
	<path style="fill:#FCC309;" d="M84.333,502.467h341.333V7.533H84.333V502.467z"/>
	<path style="fill:#FFDD09;" d="M118.467,502.467h273.067v-460.8H118.467V502.467z"/>
	<path style="fill:#FFFFFF;" d="M84.333,502.467H101.4V7.533H84.333V502.467z"/>
	<path style="fill:#FD9808;" d="M408.6,502.467h17.067V7.533H408.6V502.467z"/>
	<path d="M485.4,511H24.6c-5.12,0-8.533-3.413-8.533-8.533c0-5.12,3.413-8.533,8.533-8.533h460.8c5.12,0,8.533,3.413,8.533,8.533
		C493.933,507.587,490.52,511,485.4,511z"/>
	<path d="M425.667,511H84.333c-5.12,0-8.533-3.413-8.533-8.533V7.533C75.8,2.413,79.213-1,84.333-1h341.333
		c5.12,0,8.533,3.413,8.533,8.533v494.933C434.2,507.587,430.787,511,425.667,511z M92.867,493.933h324.267V16.067H92.867V493.933z"
		/>
	<path d="M391.533,511H118.467c-5.12,0-8.533-3.413-8.533-8.533v-460.8c0-5.12,3.413-8.533,8.533-8.533h273.067
		c5.12,0,8.533,3.413,8.533,8.533v460.8C400.067,507.587,396.653,511,391.533,511z M127,493.933h256V50.2H127V493.933z"/>
	<path d="M357.4,297.667h-34.133c-5.12,0-8.533-3.413-8.533-8.533V255c0-5.12,3.413-8.533,8.533-8.533H357.4
		c5.12,0,8.533,3.413,8.533,8.533v34.133C365.933,294.253,362.52,297.667,357.4,297.667z M331.8,280.6h17.067v-17.067H331.8V280.6z"
		/>
	<path d="M323.267,280.6h-25.6c-5.12,0-8.533-3.413-8.533-8.533s3.413-8.533,8.533-8.533h25.6c5.12,0,8.533,3.413,8.533,8.533
		S328.387,280.6,323.267,280.6z"/>
</g>
<g>
</g>
<g>
</g>
<g>
</g>
<g>
</g>
<g>
</g>
<g>
</g>
<g>
</g>
<g>
</g>
<g>
</g>
<g>
</g>
<g>
</g>
<g>
</g>
<g>
</g>
<g>
</g>
<g>
</g>
</svg>
