<?xml version="1.0" encoding="iso-8859-1"?>
<!-- Generator: Adobe Illustrator 19.0.0, SVG Export Plug-In . SVG Version: 6.00 Build 0)  -->
<svg version="1.1" id="Layer_1" xmlns="http://www.w3.org/2000/svg" xmlns:xlink="http://www.w3.org/1999/xlink" x="0px" y="0px"
	 viewBox="0 0 512.004 512.004" style="enable-background:new 0 0 512.004 512.004;" xml:space="preserve">
<path d="M503.45,443.729h-42.665V302.166l48.724-48.638c3.328-3.328,3.328-8.789,0-12.117l-48.724-48.638V68.275h42.665
	c4.693,0,8.533-3.84,8.533-8.533s-3.84-8.533-8.533-8.533h-42.665V8.544c0-4.693-3.84-8.533-8.533-8.533
	c-4.693,0-8.533,3.84-8.533,8.533v42.665H68.264V8.544c0-4.693-3.84-8.533-8.533-8.533c-4.693,0-8.533,3.84-8.533,8.533v42.665
	H8.533C3.84,51.209,0,55.049,0,59.742s3.84,8.533,8.533,8.533h42.665v375.454H8.533c-4.693,0-8.533,3.84-8.533,8.533
	s3.84,8.533,8.533,8.533h42.665v42.665c0,4.693,3.84,8.533,8.533,8.533c4.693,0,8.533-3.84,8.533-8.533v-42.665H182.01
	l-11.008,40.447c-0.853,2.901,0,6.058,2.133,8.277c1.621,1.621,3.84,2.475,6.058,2.475c0.768,0,1.536-0.085,2.219-0.341
	l58.366-15.871l35.412-9.642c1.365-0.341,2.731-1.109,3.84-2.219c0.085,0,0.085,0,0.085,0l23.039-23.125h141.563v42.665
	c0,4.693,3.84,8.533,8.533,8.533c4.693,0,8.533-3.84,8.533-8.533v-42.665h42.665c4.693,0,8.533-3.84,8.533-8.533
	S508.143,443.729,503.45,443.729z M186.618,443.729H68.264V68.275h375.454v107.431l-2.475-2.56c-3.328-3.328-8.789-3.328-12.117,0
	l-2.475,2.56V93.874c0-4.693-3.84-8.533-8.533-8.533H93.864c-4.693,0-8.533,3.84-8.533,8.533V418.13c0,4.693,3.84,8.533,8.533,8.533
	h97.447l-4.437,16.213L186.618,443.729z M102.397,336.298l73.299,73.299h-73.299V336.298z M102.397,312.235v-78.333l133.03,133.03
	c0,0-7.082,7.168-15.189,15.445c-10.666,10.837-23.21,23.637-23.466,24.234L102.397,312.235z M102.397,209.838v-95.399
	L295.158,307.2l-15.274,15.359l-32.426,32.34L102.397,209.838z M114.428,102.407h86.866l149.328,149.328l-11.008,11.093
	l-32.426,32.34L114.428,102.407z M225.358,102.407h86.61l89.853,98.045l-11.093,11.093l-28.074,28.159L225.358,102.407z
	 M335.093,102.407h74.493v81.235L335.093,102.407z M225.87,481.872l-21.418,5.888l-9.557-9.557l5.888-21.418l8.362-30.719
	l35.924,35.924l11.52,11.52L225.87,481.872z M273.058,465.83l-15.274-15.274l-40.959-40.959l15.359-15.274L351.647,274.86
	l15.274-15.359l56.233,56.233l-11.093,11.008l-85.33,85.331L273.058,465.83z M409.586,353.364v56.233h-56.233L409.586,353.364z
	 M443.719,443.729H319.221l17.066-17.066h81.832c4.693,0,8.533-3.84,8.533-8.533v-81.832l17.066-17.066V443.729z M435.185,303.702
	l-15.274-15.274l-40.959-40.959l13.568-13.568l56.233,56.233L435.185,303.702z M445.51,262.829l-40.959-40.959l30.634-30.634
	l11.008,11.093l29.866,29.866l15.359,15.274l-30.634,30.634L445.51,262.829z"/>
<polygon style="fill:#0D6758;" points="409.586,353.364 409.586,409.597 353.354,409.597 "/>
<path style="fill:#A60916;" d="M443.719,319.232v124.497H319.221l17.066-17.066h81.832c4.693,0,8.533-3.84,8.533-8.533v-81.832
	L443.719,319.232z"/>
<polygon style="fill:#40A33F;" points="153.595,409.597 102.397,409.597 102.397,358.399 "/>
<path style="fill:#0D6758;" d="M235.427,366.932c0,0-7.082,7.168-15.189,15.445L102.397,264.535v-30.634L235.427,366.932z"/>
<path style="fill:#40A33F;" d="M220.238,382.377c-10.666,10.837-23.21,23.637-23.466,24.234l-94.376-94.376v-47.7L220.238,382.377z"
	/>
<polygon style="fill:#0D6758;" points="295.158,307.2 279.884,322.56 102.397,145.072 102.397,114.439 "/>
<g>
	<polygon style="fill:#40A33F;" points="279.884,322.56 247.458,354.9 102.397,209.838 102.397,145.072 	"/>
	<polygon style="fill:#40A33F;" points="339.615,262.829 307.19,295.169 114.428,102.407 179.194,102.407 	"/>
	<polygon style="fill:#40A33F;" points="390.728,211.545 362.655,239.704 225.358,102.407 281.591,102.407 	"/>
	<polygon style="fill:#40A33F;" points="409.586,128.006 409.586,183.642 335.093,102.407 383.987,102.407 	"/>
</g>
<path style="fill:#C90006;" d="M443.719,68.275v107.431l-2.475-2.56c-3.328-3.328-8.789-3.328-12.117,0l-2.475,2.56V93.874
	c0-4.693-3.84-8.533-8.533-8.533H93.864c-4.693,0-8.533,3.84-8.533,8.533V418.13c0,4.693,3.84,8.533,8.533,8.533h97.447
	l-4.693,17.066H68.264V68.275H443.719z"/>
<polygon style="fill:#9B0045;" points="491.418,247.469 460.785,278.103 445.51,262.829 460.785,247.469 476.059,232.195 "/>
<polygon style="fill:#CC004E;" points="476.059,232.195 460.785,247.469 445.51,262.829 404.552,221.87 435.185,191.236 
	446.193,202.329 "/>
<rect x="424.755" y="278.471" transform="matrix(-0.7071 0.7071 -0.7071 -0.7071 946.0257 186.6813)" style="fill:#7E939E;" width="19.191" height="21.597"/>
<g>
	
		<rect x="396.605" y="232.212" transform="matrix(-0.7071 0.7071 -0.7071 -0.7071 878.1049 158.6224)" style="fill:#AFAFAF;" width="19.191" height="57.922"/>
	<polygon style="fill:#AFAFAF;" points="256.589,473.51 204.452,487.76 200.783,484.091 245.069,461.99 	"/>
	<polygon style="fill:#AFAFAF;" points="245.069,461.99 200.783,484.091 194.895,478.203 209.145,426.066 	"/>
</g>
<polygon style="fill:#F6981E;" points="423.154,315.733 412.061,326.741 326.73,412.072 273.058,465.83 257.783,450.556 
	407.88,300.459 "/>
<rect x="206.225" y="326.047" transform="matrix(-0.7071 0.7071 -0.7071 -0.7071 784.2576 385.1664)" style="fill:#FDB50D;" width="212.266" height="57.922"/>
<g>
	<polygon style="fill:#0D6758;" points="350.623,251.736 339.615,262.829 179.194,102.407 201.295,102.407 	"/>
	<polygon style="fill:#0D6758;" points="401.821,200.452 390.728,211.545 281.591,102.407 311.968,102.407 	"/>
	<polygon style="fill:#0D6758;" points="409.586,102.407 409.586,128.006 383.987,102.407 	"/>
	<polygon style="fill:#0D6758;" points="175.695,409.597 153.595,409.597 102.397,358.399 102.397,336.298 	"/>
</g>
<g>
</g>
<g>
</g>
<g>
</g>
<g>
</g>
<g>
</g>
<g>
</g>
<g>
</g>
<g>
</g>
<g>
</g>
<g>
</g>
<g>
</g>
<g>
</g>
<g>
</g>
<g>
</g>
<g>
</g>
</svg>
